<?xml version="1.0" encoding="UTF-8"?>
<svg id="Camada_2" data-name="Camada 2" xmlns="http://www.w3.org/2000/svg" viewBox="0 0 50.39 63.51">
  <defs>
    <style>
      .cls-1 {
        fill: #046eb0;
      }

      .cls-1, .cls-2 {
        fill-rule: evenodd;
        stroke-width: 0px;
      }

      .cls-2 {
        fill: #9c3;
      }
    </style>
  </defs>
  <g id="Camada_1-2" data-name="Camada 1">
    <g>
      <path class="cls-1" d="M43.7,14.23l4.49,2.59c.99.57,1.51,1.63,1.43,2.7,0,8.23,0,16.45,0,24.68,0,1.07-.59,2-1.46,2.49l-6.25,3.61,2.28,3.79c.45-.14.92-.21,1.41-.21,1.33,0,2.53.54,3.4,1.41.87.87,1.41,2.07,1.41,3.4s-.54,2.53-1.41,3.4c-.87.87-2.07,1.41-3.4,1.41s-2.53-.54-3.4-1.41c-.87-.87-1.41-2.07-1.41-3.4,0-1.2.44-2.3,1.17-3.14l-9.62-15.99c-.8-1.31-.78-2.9-.09-4.16,3.83-7.06,7.64-14.12,11.46-21.18h0ZM44.07,60.22c.39.39.92.63,1.51.63s1.13-.24,1.51-.63c.39-.39.63-.92.63-1.51s-.24-1.13-.63-1.51c-.39-.39-.92-.63-1.51-.63s-1.13.24-1.51.63c-.39.39-.63.92-.63,1.51s.24,1.13.63,1.51Z"/>
      <path class="cls-2" d="M15.57,9.12l8.19-4.73c.92-.53,2.01-.49,2.87,0h0s12.18,7.03,12.18,7.03c-4.36,8.06-8.72,16.11-13.08,24.17-.7,1.26-.72,2.84.09,4.16,3,4.88,6,9.77,9,14.65l-8.19,4.73c-.92.53-2.01.49-2.87,0h0s-12.18-7.03-12.18-7.03c4.36-8.06,8.72-16.11,13.08-24.17.7-1.26.72-2.84-.09-4.16-3-4.88-6-9.77-9-14.65Z"/>
      <path class="cls-1" d="M2.25,16.82l6.25-3.61-2.28-3.79c-.45.14-.92.21-1.41.21-1.33,0-2.53-.54-3.4-1.41s-1.41-2.07-1.41-3.4S.54,2.28,1.41,1.41,3.48,0,4.81,0s2.53.54,3.4,1.41,1.41,2.07,1.41,3.4c0,1.2-.44,2.3-1.17,3.14l9.62,15.99h0c.8,1.31.78,2.9.09,4.16-3.82,7.06-7.64,14.12-11.46,21.18l-4.49-2.59c-.99-.57-1.51-1.63-1.43-2.7,0-8.23,0-16.45,0-24.68,0-1.07.59-2,1.46-2.49h0ZM6.32,3.3c-.39-.39-.92-.63-1.51-.63s-1.13.24-1.51.63c-.39.39-.63.92-.63,1.51s.24,1.13.63,1.51c.39.39.92.63,1.51.63s1.13-.24,1.51-.63c.39-.39.63-.92.63-1.51s-.24-1.13-.63-1.51Z"/>
    </g>
  </g>
</svg>