<?xml version="1.0" encoding="UTF-8"?>
<svg id="Camada_2" data-name="Camada 2" xmlns="http://www.w3.org/2000/svg" viewBox="0 0 203.85 54.44">
  <defs>
    <style>
      .cls-1 {
        fill: #046eb0;
      }

      .cls-1, .cls-2 {
        fill-rule: evenodd;
        stroke-width: 0px;
      }

      .cls-2 {
        fill: #9c3;
      }
    </style>
  </defs>
  <g id="Camada_1-2" data-name="Camada 1">
    <g>
      <path class="cls-1" d="M5.47,17.57c.49,0,.9.02,1.23.06.33.04.62.13.86.26.25.13.48.32.71.55.23.24.48.55.77.94l11.44,15.01c.08.14.22.22.4.22h.28c.16,0,.25-.1.25-.31v-16.05c0-.45.23-.68.68-.68h3.23c.45,0,.68.23.68.68v17.65c0,1.25-.23,2.1-.68,2.54-.45.44-1.15.66-2.09.66h-2.64c-.47,0-.87-.02-1.18-.06-.32-.04-.6-.12-.85-.25-.25-.12-.49-.3-.72-.54-.24-.24-.51-.56-.81-.97l-11.47-15.01c-.12-.14-.26-.22-.4-.22h-.28c-.16,0-.25.1-.25.31v16.05c0,.45-.23.68-.68.68H.71c-.47,0-.71-.23-.71-.68v-17.65c0-1.25.23-2.1.68-2.54s1.15-.66,2.09-.66h2.71Z"/>
      <path class="cls-2" d="M48.83,11.88c.47,0,.71.18.71.55v2.92c0,.37-.24.55-.71.55h-3.01c-.45,0-.68-.18-.68-.55v-2.92c0-.37.23-.55.68-.55h3.01Z"/>
      <path class="cls-2" d="M40.25,11.88c.45,0,.68.18.68.55v2.92c0,.37-.23.55-.68.55h-3.01c-.45,0-.68-.18-.68-.55v-2.92c0-.37.23-.55.68-.55h3.01Z"/>
      <path class="cls-1" d="M43.73,17.57c.78,0,1.43.16,1.97.48.53.32,1.06.94,1.57,1.86l10.18,18.48c.1.2.13.37.08.51s-.2.2-.45.2h-3.91c-.35,0-.58-.13-.71-.4l-2.18-3.97h-14.45l-2.12,3.97c-.14.27-.38.4-.71.4h-4c-.27,0-.43-.07-.48-.2-.05-.13-.03-.3.08-.51l10.09-18.48c.51-.92,1.01-1.54,1.51-1.86.49-.32,1.07-.48,1.72-.48h1.81ZM37.76,31.16h10.58l-4.89-9.01c-.08-.14-.19-.22-.34-.22h-.18c-.14,0-.26.07-.34.22l-4.83,9.01Z"/>
      <path class="cls-1" d="M79.46,17.57c.47,0,.71.23.71.68v3.01c0,.47-.24.71-.71.71h-9.66v16.45c0,.45-.23.68-.68.68h-3.35c-.45,0-.68-.23-.68-.68v-16.45h-9.66c-.47,0-.71-.24-.71-.71v-3.01c0-.45.24-.68.71-.68h24.02Z"/>
      <path class="cls-1" d="M85.7,17.57c.2,0,.35.03.45.09.09.06.18.16.26.31l9.01,16.54c.06.14.18.22.37.22h.15c.14,0,.26-.07.34-.22l8.89-16.54c.12-.27.36-.4.71-.4h4.03c.25,0,.39.07.45.2.05.13.03.3-.08.51l-10.09,18.48c-.51.94-1.01,1.57-1.51,1.88-.49.31-1.07.46-1.72.46h-1.78c-.8,0-1.46-.15-1.98-.46-.52-.31-1.04-.93-1.55-1.88l-10.21-18.48c-.1-.21-.13-.37-.08-.51.05-.13.21-.2.48-.2h3.87Z"/>
      <path class="cls-1" d="M133.55,17.57c.47,0,.71.23.71.68v2.92c0,.45-.24.68-.71.68h-13.44c-.8,0-1.46.07-1.98.2-.52.13-.94.36-1.26.68-.32.32-.54.75-.66,1.29-.12.54-.18,1.21-.18,2.01v.31h17.37c.45,0,.68.23.68.68v2.43c0,.45-.23.68-.68.68h-17.37v.52c0,.8.06,1.47.18,2.01.12.54.34.97.66,1.29.32.32.74.54,1.26.68.52.13,1.18.2,1.98.2h13.44c.47,0,.71.23.71.68v2.92c0,.45-.24.68-.71.68h-13.53c-1.56,0-2.88-.14-3.97-.43-1.09-.29-1.97-.75-2.66-1.4-.69-.65-1.19-1.49-1.51-2.52-.32-1.04-.48-2.29-.48-3.77v-5.29c0-1.48.16-2.73.48-3.75.32-1.02.82-1.86,1.51-2.51.69-.65,1.57-1.12,2.66-1.41,1.09-.3,2.41-.45,3.97-.45h13.53Z"/>
      <path class="cls-1" d="M155.23,17.57c2.36,0,4.05.53,5.07,1.6,1.02,1.07,1.54,2.64,1.54,4.74v1.75c0,1.76-.36,3.16-1.08,4.18-.72,1.03-1.89,1.68-3.51,1.97l5.26,6.52c.1.1.13.26.09.46-.04.2-.2.31-.49.31h-3.97c-.27,0-.45-.03-.55-.09-.1-.06-.2-.16-.31-.31l-4.86-6.4h-9.93v6.12c0,.45-.23.68-.68.68h-3.32c-.47,0-.71-.23-.71-.68v-19.93c0-.62.31-.92.92-.92h16.51ZM142.5,28.54h11.78c1.05,0,1.78-.23,2.21-.68s.65-1.14.65-2.06v-1.29c0-.92-.22-1.61-.65-2.06s-1.17-.68-2.21-.68h-11.38c-.27,0-.4.12-.4.37v6.4Z"/>
      <path class="cls-1" d="M169.65,17.57c.45,0,.68.23.68.68v8.18h4.34c.49,0,.9-.02,1.23-.05.33-.03.61-.1.86-.2.25-.1.47-.25.68-.43.2-.18.42-.42.65-.71l5.29-7.07c.1-.14.2-.25.31-.31.1-.06.3-.09.58-.09h3.81c.27,0,.43.09.48.26.05.17.03.33-.08.48l-5.97,7.72c-.35.47-.67.87-.97,1.2-.3.33-.59.62-.88.86.8.49,1.58,1.23,2.34,2.21l6.3,8c.08.1.11.26.09.48-.02.22-.18.32-.49.32h-3.94c-.27,0-.45-.03-.55-.09-.1-.06-.2-.16-.31-.31l-5.66-7.32c-.41-.53-.85-.9-1.32-1.09-.47-.19-1.18-.29-2.12-.29h-4.67v8.43c0,.45-.23.68-.68.68h-3.32c-.47,0-.71-.23-.71-.68v-20.17c0-.45.24-.68.71-.68h3.32Z"/>
      <path class="cls-1" d="M184.64,0c9.43,5.41,15.78,15.57,15.78,27.22s-6.36,21.81-15.78,27.22c11.19-3.98,19.21-14.66,19.21-27.22S195.84,3.98,184.64,0Z"/>
    </g>
  </g>
</svg>